<svg width="82" height="78" viewBox="0 0 82 78" fill="none" xmlns="http://www.w3.org/2000/svg">
<path d="M54.6667 9.75H3.41666V52H54.6667V9.75Z" stroke="black" stroke-width="2" stroke-linecap="round" stroke-linejoin="round"/>
<path d="M54.6667 26H68.3333L78.5833 35.75V52H54.6667V26Z" stroke="black" stroke-width="2" stroke-linecap="round" stroke-linejoin="round"/>
<path d="M18.7917 68.25C23.5091 68.25 27.3333 64.6123 27.3333 60.125C27.3333 55.6377 23.5091 52 18.7917 52C14.0742 52 10.25 55.6377 10.25 60.125C10.25 64.6123 14.0742 68.25 18.7917 68.25Z" stroke="black" stroke-width="2" stroke-linecap="round" stroke-linejoin="round"/>
<path d="M63.2083 68.25C67.9258 68.25 71.75 64.6123 71.75 60.125C71.75 55.6377 67.9258 52 63.2083 52C58.4909 52 54.6667 55.6377 54.6667 60.125C54.6667 64.6123 58.4909 68.25 63.2083 68.25Z" stroke="black" stroke-width="2" stroke-linecap="round" stroke-linejoin="round"/>
</svg>
